<?xml version="1.0" encoding="UTF-8"?>
<!DOCTYPE svg PUBLIC "-//W3C//DTD SVG 1.1//EN" "http://www.w3.org/Graphics/SVG/1.1/DTD/svg11.dtd">
<!-- Creator: CorelDRAW 2019 (64-Bit) -->
<svg xmlns="http://www.w3.org/2000/svg" xml:space="preserve" width="210mm" height="297mm" version="1.1" style="shape-rendering:geometricPrecision; text-rendering:geometricPrecision; image-rendering:optimizeQuality; fill-rule:evenodd; clip-rule:evenodd"
viewBox="0 0 21000 29700"
 xmlns:xlink="http://www.w3.org/1999/xlink">
 <defs>
  <style type="text/css">
   <![CDATA[
    .str0 {stroke:#73818F;stroke-width:564.44;stroke-miterlimit:22.9256}
    .fil0 {fill:#73818F}
   ]]>
  </style>
 </defs>
 <g id="Слой_x0020_1">
  <metadata id="CorelCorpID_0Corel-Layer"/>
  <rect class="fil0 str0" x="1709.16" y="8190.76" width="2272.32" height="2272.59"/>
  <rect class="fil0 str0" x="1709.16" y="16511.32" width="2272.32" height="2272.59"/>
  <rect class="fil0 str0" x="1709.16" y="12216.84" width="2272.32" height="2272.59"/>
  <path class="fil0 str0" d="M6853.95 8862.71l11974.09 0c135.01,0 244.52,184.67 244.52,412.27l0 253.65c0,227.6 -109.51,412.27 -244.52,412.27l-11974.09 0c-135.01,0 -244.52,-184.67 -244.52,-412.27l0 -253.65c0,-227.6 109.51,-412.27 244.52,-412.27z"/>
  <path class="fil0 str0" d="M6853.95 12888.79l11974.09 0c135.01,0 244.52,184.66 244.52,412.27l0 253.64c0,227.61 -109.51,412.27 -244.52,412.27l-11974.09 0c-135.01,0 -244.52,-184.66 -244.52,-412.27l0 -253.64c0,-227.61 109.51,-412.27 244.52,-412.27z"/>
  <path class="fil0 str0" d="M6853.95 17451.68l11974.09 0c135.01,0 244.52,184.66 244.52,412.27l0 253.64c0,227.61 -109.51,412.27 -244.52,412.27l-11974.09 0c-135.01,0 -244.52,-184.66 -244.52,-412.27l0 -253.64c0,-227.61 109.51,-412.27 244.52,-412.27z"/>
 </g>
</svg>
