<?xml version="1.0" encoding="UTF-8"?>
<!DOCTYPE svg PUBLIC "-//W3C//DTD SVG 1.1//EN" "http://www.w3.org/Graphics/SVG/1.1/DTD/svg11.dtd">
<!-- Creator: CorelDRAW 2019 (64-Bit) -->
<svg xmlns="http://www.w3.org/2000/svg" xml:space="preserve" width="210mm" height="297mm" version="1.1" style="shape-rendering:geometricPrecision; text-rendering:geometricPrecision; image-rendering:optimizeQuality; fill-rule:evenodd; clip-rule:evenodd"
viewBox="0 0 21000 29700"
 xmlns:xlink="http://www.w3.org/1999/xlink">
 <defs>
  <style type="text/css">
   <![CDATA[
    .str0 {stroke:#73818F;stroke-width:2116.67;stroke-miterlimit:22.9256}
    .fil0 {fill:none}
   ]]>
  </style>
 </defs>
 <g id="Слой_x0020_1">
  <metadata id="CorelCorpID_0Corel-Layer"/>
  <polygon class="fil0 str0" points="8218.59,8705.29 9541.8,8417.48 9644.92,5702.48 12376.81,5719.88 12531.62,8382.93 13665.47,8932.84 15177.53,7214.54 17432.76,8945.83 15733.93,10938.96 16277.35,12231.78 18551.28,12163.47 18655.44,15156.67 16156.82,15170.18 15658.6,16836.79 17484.19,18202.6 15967.98,20169.76 13906.27,18451.71 12509.55,18870.97 12547.21,21647.01 9283.86,21682.08 9189.31,18953.05 7582.96,18417.43 5710.09,20342.24 3906.07,18563.41 5745.16,16881.21 5143.3,15255.9 2917.94,15207.06 2866.51,12068.91 5396.82,12117.23 6139.99,10548.29 4482.99,8735.69 6642.89,6868.8 "/>
  <ellipse class="fil0 str0" cx="10642.4" cy="13647.47" rx="2611.62" ry="2766.17"/>
 </g>
</svg>
