<?xml version="1.0" encoding="UTF-8"?>
<!DOCTYPE svg PUBLIC "-//W3C//DTD SVG 1.1//EN" "http://www.w3.org/Graphics/SVG/1.1/DTD/svg11.dtd">
<!-- Creator: CorelDRAW 2019 (64-Bit) -->
<svg xmlns="http://www.w3.org/2000/svg" xml:space="preserve" width="210mm" height="210mm" version="1.1" style="shape-rendering:geometricPrecision; text-rendering:geometricPrecision; image-rendering:optimizeQuality; fill-rule:evenodd; clip-rule:evenodd"
viewBox="0 0 21000 21000"
 xmlns:xlink="http://www.w3.org/1999/xlink">
 <defs>
  <style type="text/css">
   <![CDATA[
    .str0 {stroke:#73818F;stroke-width:564.44;stroke-miterlimit:22.9256}
    .fil1 {fill:#73818F}
    .fil0 {fill:#FEFEFE}
   ]]>
  </style>
 </defs>
 <g id="Слой_x0020_1">
  <metadata id="CorelCorpID_0Corel-Layer"/>
  <g id="_2190901335616">
   <path class="fil0 str0" d="M3032.17 7913.49l14025.27 0c659.84,-0.36 1194.64,534.8 1194.64,1194.28l0 10252c0,659.48 -534.8,1194.29 -1194.64,1194.29l-14025.27 0.35c-659.84,-0.35 -1194.65,-535.16 -1194.65,-1195l0 -10251.28c0,-659.84 534.81,-1195 1194.65,-1195l0 0.36z"/>
   <path class="fil0 str0" d="M9845.99 7873.83l-5305.52 -138.97c-564.09,-4279.14 2458.6,-7576.55 5352.68,-7576.55 2893.01,0 5963.21,3267.76 5588.1,7617.99l-5635.26 97.53z"/>
   <path class="fil1 str0" d="M10021.04 10787.2c-808.81,0 -1465.08,507.66 -1465.08,1134.27 0,500.15 417.99,924.56 998.16,1075.32l0 3733.98 1057.46 0 0 -3770.77c514.8,-175.77 874.55,-574.82 874.55,-1038.53 0,-626.61 -656.27,-1134.27 -1465.09,-1134.27z"/>
  </g>
 </g>
</svg>
